<svg xmlns="http://www.w3.org/2000/svg" viewBox="0 0 800 200">
  <!-- Icon - Network/Talent Nodes (Teal) -->
  <g transform="translate(30, 40)">
    <!-- Main stem -->
    <path d="M60 120 Q60 60 40 40" stroke="#1E88E5" stroke-width="6" fill="none" stroke-linecap="round"/>
    <path d="M60 120 Q60 60 80 40" stroke="#1E88E5" stroke-width="6" fill="none" stroke-linecap="round"/>
    
    <!-- Branches -->
    <path d="M40 40 Q25 25 15 15" stroke="#1E88E5" stroke-width="4" fill="none" stroke-linecap="round"/>
    <path d="M40 40 Q50 20 55 10" stroke="#1E88E5" stroke-width="4" fill="none" stroke-linecap="round"/>
    <path d="M80 40 Q95 25 105 15" stroke="#1E88E5" stroke-width="4" fill="none" stroke-linecap="round"/>
    <path d="M80 40 Q70 20 65 10" stroke="#1E88E5" stroke-width="4" fill="none" stroke-linecap="round"/>
    
    <!-- Nodes/Circles -->
    <!-- Center node -->
    <circle cx="60" cy="75" r="8" fill="#1E88E5"/>
    <!-- Top nodes -->
    <circle cx="40" cy="40" r="6" fill="#1E88E5"/>
    <circle cx="80" cy="40" r="6" fill="#1E88E5"/>
    <!-- End nodes -->
    <circle cx="15" cy="15" r="5" fill="none" stroke="#1E88E5" stroke-width="3"/>
    <circle cx="55" cy="10" r="5" fill="none" stroke="#1E88E5" stroke-width="3"/>
    <circle cx="105" cy="15" r="5" fill="none" stroke="#1E88E5" stroke-width="3"/>
    <circle cx="65" cy="10" r="5" fill="none" stroke="#1E88E5" stroke-width="3"/>
  </g>
  
  <!-- Company Name Text (Dark Navy) -->
  <text x="160" y="85" font-family="system-ui, -apple-system, sans-serif" font-size="56" font-weight="700" fill="#1a3a4a">
    <tspan fill="#1E88E5">ACT</tspan><tspan fill="#1a3a4a">ALENT</tspan>
  </text>
  
  <!-- Tagline Text (Dark Navy) -->
  <text x="160" y="115" font-family="system-ui, -apple-system, sans-serif" font-size="18" font-weight="400" fill="#1a3a4a" letter-spacing="8">
    SOLUTIONS PARTNERS
  </text>
</svg>